<svg xmlns="http://www.w3.org/2000/svg" viewBox="0 0 283.46 283.46"><defs><style>.cls-1{fill:#afe1fd;}.cls-2{fill:#faf58b;}</style></defs><g id="レイヤー_2" data-name="レイヤー 2"><g id="レイヤー_1-2" data-name="レイヤー 1"><rect class="cls-1" y="174.35" width="27.91" height="109.11"/><rect class="cls-1" x="84.89" y="174.35" width="28.35" height="109.11"/><rect class="cls-1" width="27.91" height="109.11"/><polygon class="cls-1" points="113.24 109.11 113.24 0.09 170.22 0.09 170.22 109.11 198.57 109.11 198.57 0 84.89 0 84.89 109.11 113.24 109.11"/><rect class="cls-1" x="255.56" width="27.91" height="109.11"/><rect class="cls-1" x="170.22" y="174.35" width="28.35" height="109.11"/><rect class="cls-1" x="255.56" y="174.35" width="27.91" height="109.11"/><polygon class="cls-2" points="255.56 0 198.57 0 198.57 109.11 170.22 109.11 170.22 0.09 113.24 0.09 113.24 109.11 84.89 109.11 84.89 0 27.91 0 27.91 109.11 0 109.11 0 174.35 27.91 174.35 27.91 283.46 84.89 283.46 84.89 174.35 113.24 174.35 113.24 283.46 170.22 283.46 170.22 174.35 198.57 174.35 198.57 283.46 255.56 283.46 255.56 174.35 283.46 174.35 283.46 109.11 255.56 109.11 255.56 0"/></g></g></svg>