<svg xmlns="http://www.w3.org/2000/svg" viewBox="0 0 490.59 204.45"><defs><style>.cls-1{fill:#4d4d4d;}.cls-10,.cls-11,.cls-12,.cls-13,.cls-2,.cls-4,.cls-5,.cls-9{fill:#4f4c4b;}.cls-10,.cls-11,.cls-12,.cls-13,.cls-3,.cls-4,.cls-5,.cls-9{isolation:isolate;}.cls-10,.cls-11,.cls-12,.cls-13,.cls-4,.cls-5,.cls-9{font-size:25.07px;font-family:Futura-Medium, Futura;font-weight:500;}.cls-4{letter-spacing:0.04em;}.cls-5{letter-spacing:-0.01em;}.cls-6{letter-spacing:0.05em;}.cls-7{letter-spacing:0.07em;}.cls-8{letter-spacing:0.04em;}.cls-9{letter-spacing:0.02em;}.cls-10{letter-spacing:0.01em;}.cls-11{letter-spacing:0.02em;}.cls-12{letter-spacing:0.03em;}.cls-13{letter-spacing:0.03em;}</style></defs><g id="レイヤー_2" data-name="レイヤー 2"><g id="レイヤー_1-2" data-name="レイヤー 1"><path class="cls-1" d="M332.76,42.15a31.91,31.91,0,1,0,16.44,60.47,52.23,52.23,0,0,1-19.49-21.94,1.66,1.66,0,0,1,.79-2.2l.2-.08,7.14-2.33a1.63,1.63,0,0,1,2,.82,41.6,41.6,0,0,0,16.45,17.46c.77.44,1.56.85,2.34,1.2a31.9,31.9,0,0,0-25.85-53.4ZM346,65.87a7.7,7.7,0,1,1,7.37-8h0a7.69,7.69,0,0,1-7.35,8Z"/><path class="cls-1" d="M428.4.17a57.73,57.73,0,0,0-37.32,97.45,41.84,41.84,0,0,0,27-48.74,1.66,1.66,0,0,1,1.2-1.94l7.2-1.91a1.65,1.65,0,0,1,2,1.16v0c4.49,19.29-2,39.6-18.62,53.41a.39.39,0,0,1-.1.08,58.22,58.22,0,0,1-9.47,5.68A57.72,57.72,0,1,0,428.4.17ZM393.6,54.56a7.71,7.71,0,1,1,7.37-8h0A7.72,7.72,0,0,1,393.6,54.56Z"/><path class="cls-2" d="M0,154.86V61.2l64,66.93V67.2h13.2v93l-64-66.75v61.41Z"/><path class="cls-2" d="M147.84,80.21,137,86.57c-2-3.48-3.92-5.76-5.74-6.81a15.28,15.28,0,0,0-16.47,1.3,9.71,9.71,0,0,0-3.6,7.73q0,6.43,9.6,10.35l8.75,3.6q10.68,4.32,15.6,10.53a23.82,23.82,0,0,1,4.94,15.27,26.81,26.81,0,0,1-8.06,20,27.73,27.73,0,0,1-20.18,7.95q-11.4,0-18.86-6.75t-9.14-19l13.4-3c.61,5.16,1.67,8.71,3.18,10.68q4.11,5.68,11.94,5.69A13.81,13.81,0,0,0,132.68,140a14.4,14.4,0,0,0,4.1-10.51,14.85,14.85,0,0,0-.72-4.68,11.93,11.93,0,0,0-2.21-3.93,17.6,17.6,0,0,0-3.9-3.35,37.44,37.44,0,0,0-5.68-3L115.8,111q-18-7.61-18-22.28a21.13,21.13,0,0,1,7.56-16.53,27.29,27.29,0,0,1,18.8-6.71Q139.33,65.45,147.84,80.21Z"/><path class="cls-2" d="M166.08,154.86V61.2l64,66.93V67.2h13.2v93L179.32,93.45v61.41Z"/><path class="cls-2" d="M277.55,67.2v87.72h-13.2V67.2Z"/><g class="cls-3"><text class="cls-4" transform="translate(4.92 197.21) scale(1.15 1)">t</text><text class="cls-5" transform="translate(14.1 197.21) scale(1.15 1)">h</text><text class="cls-4" transform="translate(29.59 197.21) scale(1.15 1)">e <tspan class="cls-6" x="23.61" y="0">N</tspan><tspan x="46.02" y="0">ational S</tspan><tspan class="cls-7" x="155.61" y="0">c</tspan><tspan class="cls-8" x="169.21" y="0">hool of</tspan></text><text class="cls-9" transform="translate(326.58 197.21) scale(1.15 1)"> </text><text class="cls-10" transform="translate(336.19 197.21) scale(1.15 1)">N</text><text class="cls-11" transform="translate(360.92 197.21) scale(1.15 1)">a</text><text class="cls-11" transform="translate(378.73 197.21) scale(1.15 1)">o</text><text class="cls-12" transform="translate(396.76 197.21) scale(1.15 1)">I</text><text class="cls-12" transform="translate(406.15 197.21) scale(1.15 1)">s</text><text class="cls-13" transform="translate(418.84 197.21) scale(1.15 1)">l</text><text class="cls-13" transform="translate(426.95 197.21) scale(1.15 1)">a</text><text class="cls-12" transform="translate(445.1 197.21) scale(1.15 1)">n</text><text class="cls-4" transform="translate(461.84 197.21) scale(1.15 1)">d</text></g></g></g></svg>